<svg width="100%" height="100%" viewBox="0 0 20 20" fill="none" xmlns="http://www.w3.org/2000/svg">
<path d="M16.8336 6.29137C16.2298 6.00004 15.4795 5.9162 14.9375 5.89587C14.4581 5.87471 14 6.00004 13.5833 6.20837L10.521 7.60404L5.85474 6.16687C5.79208 6.14571 5.72942 6.14571 5.68791 6.18803L4.77158 6.6462C4.70892 6.6877 4.64625 6.75036 4.64625 6.83337C4.64625 6.91638 4.66741 6.97904 4.72926 7.0417L7.60447 9.12504L4.64635 10.6875L2.70868 9.39604C2.62567 9.35453 2.54185 9.35453 2.45885 9.39604L1.77118 9.8542C1.66701 9.91687 1.64585 10.0625 1.70852 10.1667L3.54202 12.875C3.58352 12.9377 3.66734 12.9792 3.75035 12.9792L5.79218 12.7497C5.81334 12.7497 5.83369 12.7497 5.85485 12.7285L9.10526 11.3117L8.43876 15.4369C8.4176 15.4996 8.43876 15.5622 8.48027 15.6241C8.52177 15.6656 8.58443 15.7071 8.6471 15.7071H9.83443C9.91744 15.7071 10.0013 15.6656 10.0428 15.5818L12.7298 9.74845L16.2715 8.20711C16.5425 8.1241 16.8135 7.91578 17.0633 7.64478C17.2717 7.41528 17.3547 7.29078 17.2928 6.99861C17.292 6.66657 17.1049 6.43709 16.8339 6.29143L16.8336 6.29137Z" fill="currentColor"></path>
</svg>