<svg width="100%" height="100%" viewBox="0 0 768 768" fill="none" xmlns="http://www.w3.org/2000/svg">
<path d="M289.088 251.937C289.088 253.409 290.282 254.603 291.755 254.603C293.227 254.603 294.421 253.409 294.421 251.937C294.421 250.464 293.227 249.27 291.755 249.27C290.282 249.27 289.088 250.464 289.088 251.937ZM228.255 101.937L227.758 101.878L228.255 101.937ZM318.589 310.937C318.589 312.409 319.783 313.603 321.255 313.603C322.728 313.603 323.922 312.409 323.922 310.937C323.922 309.464 322.728 308.27 321.255 308.27C319.783 308.27 318.589 309.464 318.589 310.937ZM611.255 154.443L611.627 154.777L611.627 154.777L611.255 154.443ZM271.589 465.937C271.589 467.409 272.783 468.603 274.255 468.603C275.728 468.603 276.922 467.409 276.922 465.937C276.922 464.464 275.728 463.27 274.255 463.27C272.783 463.27 271.589 464.464 271.589 465.937ZM63.9305 367.324L64.2632 367.698L63.9305 367.324ZM225.333 365.315C225.333 366.788 226.527 367.982 228 367.982C229.473 367.982 230.667 366.788 230.667 365.315C230.667 363.842 229.473 362.648 228 362.648C226.527 362.648 225.333 363.842 225.333 365.315ZM291.755 251.937L292.187 251.685C280.942 232.362 264.275 201.676 250.821 172.428C244.094 157.803 238.174 143.547 234.137 131.256C230.092 118.94 227.965 108.675 228.751 101.995L228.255 101.937L227.758 101.878C226.944 108.798 229.142 119.25 233.187 131.568C237.241 143.91 243.178 158.204 249.913 172.846C263.384 202.131 280.067 232.845 291.322 252.188L291.755 251.937ZM321.255 310.937L321.574 311.322C388.537 255.856 468.502 208.377 527.977 178.953C557.719 164.239 582.312 154.051 597.581 149.634C601.397 148.53 604.619 147.791 607.185 147.429C609.772 147.065 611.624 147.096 612.745 147.471C613.295 147.655 613.62 147.906 613.793 148.185C613.963 148.458 614.032 148.832 613.924 149.36C613.7 150.454 612.751 152.023 610.882 154.11L611.255 154.443L611.627 154.777C613.509 152.676 614.622 150.936 614.904 149.561C615.049 148.855 614.982 148.204 614.643 147.657C614.307 147.117 613.75 146.753 613.062 146.523C611.707 146.069 609.656 146.071 607.046 146.439C604.415 146.809 601.144 147.563 597.304 148.674C581.948 153.116 557.292 163.334 527.533 178.057C468.008 207.506 387.973 255.024 320.936 310.551L321.255 310.937ZM611.255 154.443L610.882 154.11C599.154 167.206 581.487 180.142 563.99 191.071L564.255 191.495L564.52 191.92C582.043 180.974 599.804 167.979 611.627 154.777L611.255 154.443ZM274.255 465.937L274.308 466.434C377.385 455.425 474.454 423.4 579.511 360.866L579.256 360.437L579 360.007C474.057 422.473 377.125 454.448 274.202 465.439L274.255 465.937ZM579.256 360.437L579.511 360.866C632.052 329.592 653.162 296.701 651.335 269.843C649.505 242.942 624.71 222.467 586.339 215.95L586.255 216.443L586.171 216.936C624.349 223.419 648.554 243.691 650.337 269.911C652.124 296.176 631.459 328.781 579 360.007L579.256 360.437ZM228.255 101.937L228.751 101.995C229.067 99.3109 229.893 97.4631 231.091 96.2803C232.282 95.1042 233.899 94.527 235.925 94.5009C240.019 94.4483 245.622 96.6497 252.124 100.423C265.09 107.949 281.283 121.518 295.415 134.685L295.755 134.319L296.096 133.953C281.955 120.778 265.694 107.144 252.626 99.5583C246.109 95.7761 240.3 93.4446 235.912 93.501C233.698 93.5295 231.807 94.1672 230.388 95.5689C228.976 96.9639 228.09 99.0567 227.758 101.878L228.255 101.937ZM63.9305 367.324L64.2632 367.698C66.666 365.556 70.2861 363.789 74.9186 362.365C79.5443 360.942 85.1421 359.873 91.467 359.105C104.117 357.569 119.626 357.242 135.982 357.677C168.691 358.547 204.729 362.463 227.929 365.81L228 365.315L228.071 364.82C204.846 361.469 168.768 357.549 136.008 356.677C119.63 356.242 104.066 356.568 91.3464 358.113C84.9868 358.885 79.3262 359.963 74.6247 361.409C69.93 362.852 66.1542 364.672 63.5978 366.951L63.9305 367.324ZM119.5 401.822L119.603 401.332C103.397 397.938 85.3866 393.041 73.522 387.154C67.5705 384.202 63.267 381.047 61.4521 377.79C60.5565 376.182 60.2748 374.564 60.6837 372.918C61.0958 371.26 62.2241 369.515 64.2632 367.698L63.9305 367.324L63.5978 366.951C61.4662 368.851 60.1897 370.76 59.7133 372.677C59.2337 374.606 59.5798 376.484 60.5786 378.276C62.5526 381.82 67.1044 385.087 73.0775 388.05C85.0621 393.996 103.178 398.913 119.397 402.311L119.5 401.822Z" fill="currentColor"></path>
</svg>