<svg width="100%" height="100%" viewBox="0 0 88 32" fill="none" xmlns="http://www.w3.org/2000/svg">
<path d="M0.869273 16.5748H6.5322C6.38838 17.2939 6.31647 17.977 6.31647 18.6242C6.35243 21.1411 7.4131 23.2624 9.4985 24.9883C11.6198 26.6782 14.712 27.5231 18.7749 27.5231C28.303 27.5231 33.7502 23.7838 35.1165 16.3051L38.521 -0.000246535H44.13L40.7255 16.3051C39.8626 21.231 37.5794 25.0781 33.8761 27.8467C30.1727 30.6152 24.8693 31.9995 17.9659 31.9995C11.6738 31.9995 7.19737 30.795 4.53669 28.386C1.91197 25.977 0.599609 23.0467 0.599609 19.595C0.599609 18.6602 0.689497 17.6534 0.869273 16.5748Z" fill="currentColor"></path>
<path d="M87.1303 15.4238H81.4674C81.6112 14.7047 81.6831 14.0215 81.6831 13.3743C81.6472 10.8575 80.5865 8.73612 78.5011 7.01027C76.3798 5.32038 73.2876 4.47544 69.2247 4.47544C59.6966 4.47544 54.2494 8.21477 52.8831 15.6934L49.4786 31.9988H43.8696L47.2741 15.6934C48.137 10.7676 50.4202 6.92038 54.1236 4.15184C57.8269 1.38329 63.1303 -0.000976562 70.0337 -0.000976562C76.3258 -0.000976562 80.8022 1.20352 83.4629 3.61251C86.0876 6.0215 87.4 8.95185 87.4 12.4035C87.4 13.3384 87.3101 14.3451 87.1303 15.4238Z" fill="currentColor"></path>
</svg>